Coordinates
version=1
nRows=10
nColumns=40
inDegrees=yes

Units are S.I. units (second, meters, Newtons, ...)
Angles are in degrees.

endheader
time	pelvis_tilt	pelvis_list	pelvis_rotation	pelvis_tx	pelvis_ty	pelvis_tz	hip_flexion_r	hip_adduction_r	hip_rotation_r	knee_angle_r	knee_angle_r_beta	ankle_angle_r	subtalar_angle_r	mtp_angle_r	hip_flexion_l	hip_adduction_l	hip_rotation_l	knee_angle_l	knee_angle_l_beta	ankle_angle_l	subtalar_angle_l	mtp_angle_l	lumbar_extension	lumbar_bending	lumbar_rotation	arm_flex_r	arm_add_r	arm_rot_r	elbow_flex_r	pro_sup_r	wrist_flex_r	wrist_dev_r	arm_flex_l	arm_add_l	arm_rot_l	elbow_flex_l	pro_sup_l	wrist_flex_l	wrist_dev_l
     54.90000000	     -7.37136365	     -5.09461346	     -0.58314086	      0.87054514	      0.93016318	      0.42164188	     34.64847702	     -4.65358787	     -5.68593842	     68.78150587	     68.78150587	      0.63246115	    -15.24014582	      1.70872210	     16.53531632	     -4.23860784	     -5.77339664	     21.24699992	     21.24699992	     14.60172486	     -7.39339083	      1.53527340	    -10.58954340	      6.16009794	      0.79105345	      0.06441149	    -13.38770942	     -0.16909800	     28.85600881	     45.07775682	      0.00000000	      0.00000000	     17.28155302	    -14.64647467	     -9.16025584	     64.73087250	     45.49172796	      0.00000000	      0.00000000
     54.91228571	     -7.31906424	     -5.14087686	     -0.84384467	      0.86959469	      0.93113546	      0.42171806	     35.54958046	     -4.61671551	     -5.73802680	     67.18521194	     67.18521194	      0.81540962	    -14.77922590	      1.58945325	     15.63137834	     -4.27504071	     -5.97372391	     20.46408686	     20.46408686	     14.69247836	     -7.27298445	      1.70224732	    -10.74915167	      6.19972462	      0.82900185	     -1.66013386	    -13.53716565	     -0.21650756	     28.07736164	     45.11237381	      0.00000000	      0.00000000	     18.43699403	    -14.92639171	     -9.54002410	     65.95624672	     45.56863178	      0.00000000	      0.00000000
     54.92457143	     -7.25409211	     -5.17232061	     -1.11489379	      0.86868038	      0.93188712	      0.42177000	     36.30757197	     -4.55218991	     -5.75213874	     65.36039420	     65.36039420	      0.69546711	    -14.42792789	      0.95988176	     14.78329221	     -4.28951174	     -6.13558247	     19.81725418	     19.81725418	     14.72742302	     -7.27052315	      1.58357245	    -10.93580925	      6.25037431	      0.73704484	     -3.46077126	    -13.63829013	     -0.78088435	     27.89516525	     45.19965855	      0.00000000	      0.00000000	     19.06580257	    -15.28452119	    -10.27675225	     68.58978574	     45.76944429	      0.00000000	      0.00000000
     54.93685714	     -7.20292064	     -5.26289190	     -1.36341055	      0.86777312	      0.93263135	      0.42201537	     36.90096526	     -4.39587908	     -5.83421673	     63.24136977	     63.24136977	      0.81476601	    -13.96684355	      1.00038762	     13.93835536	     -4.38763929	     -6.34885716	     19.13262297	     19.13262297	     14.82654832	     -7.09762066	      1.63533161	    -11.06295619	      6.31324865	      0.66517130	     -5.08308761	    -13.78220430	     -0.86322977	     27.31069567	     45.22829135	      0.00000000	      0.00000000	     20.14024984	    -15.65882200	    -10.66266452	     69.81042925	     45.84569361	      0.00000000	      0.00000000
     54.94914286	     -7.11658925	     -5.28908765	     -1.62701434	      0.86691330	      0.93324177	      0.42220258	     37.30140429	     -4.27935293	     -5.86521954	     60.81285084	     60.81285084	      0.91404643	    -13.43458867	      1.00498785	     13.05872538	     -4.40278421	     -6.59960631	     18.45512371	     18.45512371	     14.91336283	     -6.95613364	      1.58483422	    -11.25393211	      6.38191643	      0.78834054	     -6.77463570	    -13.88963459	     -1.06508188	     26.90990612	     45.26309541	      0.00000000	      0.00000000	     21.11396245	    -15.90033505	    -11.13580543	     71.69305014	     45.94871076	      0.00000000	      0.00000000
     54.96142857	     -7.13179965	     -5.36296248	     -1.84986858	      0.86598861	      0.93351929	      0.42251325	     37.59295809	     -4.10800310	     -5.99022745	     57.96195601	     57.96195601	      0.92682269	    -12.91599039	      0.67595067	     12.36430589	     -4.47251971	     -6.75840930	     17.87187733	     17.87187733	     14.88625917	     -6.92084376	      1.17035308	    -11.35453488	      6.46223148	      0.46976047	     -8.30267878	    -13.96017834	     -1.75180796	     27.13661114	     45.33881817	      0.00000000	      0.00000000	     21.47708808	    -16.35700332	    -11.89035790	     74.22562072	     46.13824528	      0.00000000	      0.00000000
     54.97371429	     -7.16706400	     -5.45296339	     -2.04476325	      0.86505129	      0.93373944	      0.42292967	     37.68398220	     -3.92080861	     -6.21545314	     54.68834433	     54.68834433	      1.11808655	    -12.23524209	      0.85375523	     11.72342325	     -4.57094953	     -6.92351014	     17.35066514	     17.35066514	     14.97491571	     -6.81800680	      1.14612521	    -11.37157837	      6.57249482	      0.37621477	     -9.62106491	    -14.04240509	     -1.84826524	     26.70057600	     45.36199459	      0.00000000	      0.00000000	     22.38043278	    -16.70217537	    -12.19612808	     75.28544209	     46.19988262	      0.00000000	      0.00000000
     54.98600000	     -7.18533820	     -5.44159461	     -2.28482148	      0.86420038	      0.93367080	      0.42343365	     37.54545427	     -3.76876534	     -6.36825102	     50.96880172	     50.96880172	      0.97447727	    -11.57323784	     -0.16487037	     11.01181293	     -4.55156629	     -7.11941983	     16.73111319	     16.73111319	     14.88382935	     -6.77526754	      0.48975042	    -11.49708617	      6.52777782	      0.21368358	    -10.97201360	    -14.01848858	     -2.76670313	     26.99522237	     45.47085922	      0.00000000	      0.00000000	     22.65848259	    -17.03154717	    -12.91552272	     78.01843732	     46.42574551	      0.00000000	      0.00000000
     54.99828571	     -7.25854844	     -5.48874113	     -2.48180969	      0.86330659	      0.93342032	      0.42404803	     37.25924647	     -3.55530044	     -6.66249394	     46.88499286	     46.88499286	      1.21144336	    -10.54357118	      0.04987825	     10.46866868	     -4.61037287	     -7.24819696	     16.32260356	     16.32260356	     15.08445517	     -6.71121675	      0.37767852	    -11.46816657	      6.57129791	      0.22536917	    -12.09900148	    -14.03760534	     -2.86234312	     26.61883272	     45.49321973	      0.00000000	      0.00000000	     23.48463176	    -17.28434182	    -13.12389504	     79.05339429	     46.48120287	      0.00000000	      0.00000000
     55.01057143	     -7.31630081	     -5.46145000	     -2.66599889	      0.86248988	      0.93301895	      0.42472004	     36.73140547	     -3.38326137	     -7.00548306	     42.42224188	     42.42224188	      1.43530125	     -9.24860049	      0.15303456	      9.90586797	     -4.59465980	     -7.41840825	     15.90974475	     15.90974475	     15.22692330	     -6.58422106	      0.18143259	    -11.50574242	      6.54430868	      0.30641490	    -13.20210031	    -14.01210700	     -3.04390375	     26.41126799	     45.51647316	      0.00000000	      0.00000000	     24.14986821	    -17.43419564	    -13.30392929	     80.52016719	     46.54468476	      0.00000000	      0.00000000
